<svg width="35" height="36" viewBox="0 0 35 36" fill="none" xmlns="http://www.w3.org/2000/svg">
<path d="M34.8895 16.5991L33.9655 16.2166C34.0111 16.1064 34.0114 15.9796 33.9661 15.869C33.9395 15.8059 33.9045 15.7553 33.8659 15.7167L29.493 11.3438C29.493 11.3438 29.493 11.3438 29.493 11.3437C29.3132 11.1645 29.0235 11.1644 28.8437 11.3435C28.664 11.5237 28.6655 11.8126 28.8433 11.99L28.8442 11.9909L30.7299 13.8766L32.437 15.5837H30.0228H21.8761C21.6226 15.5837 21.4177 15.7887 21.4177 16.0421C21.4177 16.2955 21.6226 16.5005 21.8761 16.5005H30.0227H32.437L30.7298 18.2076L28.8441 20.0933C28.664 20.2735 28.6652 20.5628 28.8432 20.7403L28.8459 20.743C28.9334 20.831 29.0475 20.8757 29.1681 20.8757C29.2889 20.8757 29.4029 20.831 29.4903 20.7431L29.4921 20.7412L33.8659 16.3674L33.8697 16.3637L33.8697 16.3637C33.905 16.3288 33.9391 16.2803 33.9657 16.2161L34.8895 16.5991ZM34.8895 16.5991C35.0367 16.2434 35.0367 15.8409 34.8895 15.4851V16.5991Z" fill="white" stroke="#12526D" stroke-width="2"/>
<path d="M24.3344 30.1681H23.3344H17.5008H16.5008V29.1681V5.83359C16.5008 5.63225 16.3678 5.45264 16.1736 5.39428C16.1736 5.39427 16.1735 5.39425 16.1735 5.39424L11.1086 3.87465L11.3959 1.91683H23.3344H24.3344V2.91683V10.2089C24.3344 10.4623 24.5393 10.6673 24.7928 10.6673C25.0464 10.6673 25.2512 10.4623 25.2512 10.2089V1.45845C25.2512 1.20496 25.0463 1 24.7928 1H1.54965C1.51727 1.007 1.47306 1.01537 1.4214 1.02126L1.41427 1.02207L1.41427 1.02204C1.39721 1.02386 1.38011 1.02663 1.35502 1.03258C1.30359 1.04631 1.26224 1.06484 1.22233 1.08995L1.21489 1.07812C1.20304 1.08834 1.19056 1.09864 1.17744 1.10892C1.16808 1.11637 1.15925 1.12383 1.15091 1.13132M24.3344 30.1681L1.33955 0.950324C1.34579 0.942724 1.35149 0.935566 1.35665 0.928929C1.37533 0.904942 1.38955 0.884532 1.39823 0.871734C1.39825 0.871709 1.39826 0.871685 1.39828 0.871661L1.40347 0.863884L1.40872 0.856007L1.41311 0.849269C1.41383 0.848146 1.41287 0.849628 1.41165 0.851494L1.4042 0.862654C1.40396 0.863012 1.40371 0.86338 1.40345 0.863759C1.40194 0.865974 1.40019 0.86853 1.39819 0.87139C1.3912 0.881434 1.38129 0.895215 1.36893 0.911069C1.36064 0.921711 1.35065 0.93408 1.33888 0.947713L1.1113 0.0626886M24.3344 30.1681V29.1681V21.8761C24.3344 21.6227 24.5393 21.4177 24.7928 21.4177C25.0464 21.4177 25.2512 21.6227 25.2512 21.8761V30.6265C25.2512 30.8799 25.0464 31.0849 24.7928 31.0849H17.5008H16.5008V32.0849V33.5433C16.5008 33.6793 16.4397 33.8096 16.3318 33.8983C16.2503 33.9653 16.1473 34.0018 16.0424 34.0018C16.0085 34.0018 15.9838 33.9986 15.9673 33.995L15.96 33.9934L15.9527 33.992L1.36867 31.0752L1.36786 31.075C1.15423 31.0324 1 30.8448 1 30.6265V1.57944M24.3344 30.1681L0.95183 1.75132M1.15091 1.13132C1.13343 1.14061 1.11675 1.14888 1.10111 1.15623C1.09756 1.16839 1.09302 1.18345 1.08737 1.2007M1.15091 1.13132C1.1751 1.11847 1.20081 1.10369 1.22742 1.08672L1.21942 1.07418C1.26652 1.03307 1.30344 0.993338 1.33108 0.960512L0.951778 1.75147L0.95183 1.75132M1.15091 1.13132C1.1254 1.15424 1.10454 1.17737 1.08737 1.2007M1.08737 1.2007C1.07534 1.21705 1.06513 1.23349 1.0564 1.25003L1.01281 1.22702C1.01352 1.23379 1.0144 1.24248 1.01527 1.25217C1.01536 1.25317 1.01545 1.25419 1.01554 1.25521C1.01615 1.26225 1.0168 1.27024 1.01742 1.27905C1.01824 1.29086 1.01902 1.30414 1.01959 1.31858C1.02019 1.33398 1.02059 1.35113 1.02055 1.36977M1.08737 1.2007C1.08064 1.22128 1.07233 1.24498 1.06229 1.2706L1.05769 1.28234L1.0528 1.29395L1.03314 1.34017L1.02055 1.36977M1.02055 1.36977L1.01775 1.37635C1.01212 1.38973 1.00807 1.39963 1.00507 1.40722C1.00322 1.4119 1.00177 1.4157 1.00059 1.41889C1.00015 1.42008 0.99978 1.4211 0.999471 1.42197C0.998578 1.42447 0.998203 1.42566 0.998208 1.42566C0.998212 1.42566 0.998622 1.42438 0.999282 1.42196C0.999927 1.4196 1.00081 1.41615 1.00179 1.41174C1.00211 1.4103 1.00244 1.40877 1.00277 1.40714C1.00357 1.40324 1.0044 1.39877 1.00519 1.39381C1.00546 1.39198 1.00571 1.39016 1.00596 1.38835C1.01204 1.34448 1.01376 1.3067 1.01383 1.27754C1.01384 1.2722 1.0138 1.26715 1.01372 1.2624C1.01366 1.25858 1.01357 1.25493 1.01346 1.25146C1.01315 1.24164 1.0127 1.23329 1.01226 1.22673L0.974802 1.20695C0.973804 1.20729 0.972848 1.20762 0.971936 1.20792L0.957276 1.21281L0.953213 1.21414L0.951525 1.2147M1.02055 1.36977C1.02052 1.38182 1.02031 1.39449 1.01987 1.40772L1.01961 1.41533L1.01923 1.42294C1.01658 1.47698 1.01011 1.52502 1.00262 1.56573C1.00176 1.57038 1.00089 1.57495 1 1.57944M0.951525 1.2147C0.953204 1.21414 0.958654 1.2123 0.965675 1.20975C0.968118 1.20887 0.970962 1.20782 0.974167 1.20662L0.172069 0.783163M0.951525 1.2147L0.951335 1.21476L0.951525 1.2147ZM0.172069 0.783163L0.982027 1.20361C0.991011 1.20012 1.00192 1.19568 1.0142 1.19029C1.03783 1.17991 1.06819 1.16529 1.10258 1.14521C1.10294 1.14421 1.10328 1.14323 1.10362 1.14226C1.10769 1.13057 1.11056 1.12134 1.11223 1.11577C1.11385 1.11039 1.11471 1.10717 1.11441 1.10828L1.11343 1.11189L1.11113 1.12043C1.10966 1.12585 1.10739 1.1342 1.10461 1.14402C1.11986 1.13507 1.13588 1.12504 1.15244 1.11385L0.559959 0.32233M0.172069 0.783163C0.268324 0.600839 0.401015 0.447707 0.559959 0.32233M0.172069 0.783163C0.16014 0.806144 0.153682 0.830126 0.147193 0.854226C0.142563 0.87142 0.137917 0.888675 0.131256 0.905669C0.125547 0.91922 0.119772 0.932728 0.114003 0.946225C0.0725928 1.0431 0.031426 1.13941 0.0160652 1.24694C0.0117856 1.27253 0.0145027 1.29712 0.0172068 1.3216C0.0191247 1.33896 0.0210361 1.35626 0.0204404 1.37382C0.0197488 1.38788 0.0149799 1.40126 0.0102225 1.41461C0.00510456 1.42897 0 1.44329 0 1.45838V30.6265L1.30819 0.0276869C1.23962 0.0350017 1.17693 0.0466233 1.1113 0.0626886M0.559959 0.32233L1.17302 1.09952C1.1779 1.09601 1.18283 1.0924 1.18778 1.08869C1.18966 1.08728 1.19155 1.08586 1.19344 1.08442L1.1878 1.08872L1.18778 1.0887C1.18969 1.08727 1.19158 1.08584 1.19345 1.08441C1.19926 1.07999 1.20494 1.07556 1.21049 1.07113L0.689848 0.243508M0.559959 0.32233C0.565798 0.317959 0.569812 0.311763 0.573833 0.305557C0.577862 0.299338 0.581897 0.293109 0.587782 0.288696C0.604205 0.276196 0.623143 0.269985 0.64212 0.263763C0.658534 0.25838 0.674978 0.252988 0.689848 0.243508M0.689848 0.243508L1.21511 1.06742C1.26342 1.02841 1.30155 0.989922 1.33034 0.957474L1.1113 0.0626886M0.689848 0.243508C0.8196 0.161883 0.958171 0.102065 1.1113 0.0626886M1 1.57944V1.45838C1 1.5596 0.983468 1.63945 0.971454 1.68615C0.965398 1.70969 0.959652 1.72791 0.956317 1.73808C0.954271 1.74432 0.952504 1.7494 0.95183 1.75132M1 1.57944C0.993182 1.61399 0.985608 1.64364 0.978973 1.66713C0.971551 1.6934 0.964478 1.71481 0.959947 1.72812L0.954299 1.74438L0.952635 1.74906L0.95183 1.75132M1.02696 1.18798C1.04646 1.18041 1.0706 1.17047 1.09805 1.15766C1.0896 1.18025 1.07719 1.21003 1.05961 1.24389L1.01197 1.21915C1.01193 1.2188 1.01189 1.21845 1.01186 1.21812L1.01129 1.21293L1.01089 1.20937C1.01067 1.20738 1.01063 1.20694 1.01065 1.20712L1.01065 1.20713C1.01068 1.20748 1.01116 1.21203 1.01171 1.21902L0.983022 1.20413C0.994641 1.20009 1.0098 1.19465 1.02696 1.18798Z" fill="white" stroke="#12526D" stroke-width="2"/>
</svg>
