<svg width="83" height="124" viewBox="0 0 83 124" fill="none" xmlns="http://www.w3.org/2000/svg">
<path d="M42.2154 123.229C56.5613 123.252 70.5967 119.052 82.5714 111.152C79.8658 96.3667 69.57 95.5243 69.57 95.5243H12.7935C12.7935 95.5243 3.07784 96.3216 0.043457 109.923C12.3893 118.607 27.1212 123.255 42.2154 123.229Z" fill="#12526D"/>
<path d="M41.4345 83.4105C61.0058 83.4105 76.8715 67.5448 76.8715 47.9735C76.8715 28.4022 61.0058 12.5366 41.4345 12.5366C21.8632 12.5366 5.99756 28.4022 5.99756 47.9735C5.99756 67.5448 21.8632 83.4105 41.4345 83.4105Z" fill="#333333"/>
<path opacity="0.1" d="M29.998 77.4899H52.7043V95.6554C52.7043 98.6657 51.5088 101.553 49.3806 103.682C47.2524 105.811 44.3658 107.007 41.3555 107.009C38.3445 107.009 35.4567 105.812 33.3276 103.683C31.1985 101.554 30.0023 98.6664 30.0023 95.6554V77.4899H29.998Z" fill="black"/>
<path d="M30.7181 76.6476H51.9931C52.1841 76.6476 52.3672 76.7234 52.5022 76.8584C52.6372 76.9935 52.7131 77.1766 52.7131 77.3675V94.8131C52.7133 96.3045 52.4197 97.7814 51.8491 99.1594C51.2784 100.537 50.4418 101.789 49.387 102.844C48.3323 103.898 47.0801 104.735 45.7021 105.305C44.324 105.876 42.8471 106.169 41.3556 106.168C38.3446 106.168 35.4568 104.972 33.3277 102.843C31.1986 100.714 30.0024 97.8262 30.0024 94.8152V77.3675C30.0024 77.1773 30.0777 76.9948 30.2118 76.86C30.3459 76.7251 30.5279 76.6487 30.7181 76.6476Z" fill="#B16668"/>
<path opacity="0.1" d="M30.0391 86.0645C37.3571 88.7985 45.4124 88.8206 52.7454 86.1268V83.3331H30.0391V86.0645Z" fill="black"/>
<path d="M41.4347 87.5838C59.4097 87.5838 73.9813 73.0122 73.9813 55.0372C73.9813 37.0623 59.4097 22.4907 41.4347 22.4907C23.4598 22.4907 8.88818 37.0623 8.88818 55.0372C8.88818 73.0122 23.4598 87.5838 41.4347 87.5838Z" fill="#B16668"/>
<path opacity="0.1" d="M18.251 25.4327C18.251 25.4327 31.968 53.2751 70.6607 37.106L61.6521 22.9806L45.6829 17.2493L18.251 25.4327Z" fill="black"/>
<path d="M18.251 25.0243C18.251 25.0243 31.968 52.8667 70.6607 36.6934L61.6521 22.568L45.6829 16.8367L18.251 25.0243Z" fill="#333333"/>
<path d="M18.1311 23.1376C19.056 20.2745 20.6545 17.6752 22.7923 15.5581C29.1941 9.22927 39.6898 7.89474 45.0731 0.678406C46.3625 2.68127 45.3653 5.76079 43.139 6.62038C48.2966 6.586 54.2729 6.13471 57.1891 1.89259C57.9098 3.57037 58.1395 5.41824 57.8516 7.22141C57.5636 9.02458 56.7698 10.709 55.5623 12.0788C60.1333 12.2937 65.0179 15.3883 65.3059 19.9549C65.5036 22.9979 63.5867 25.8776 61.096 27.6225C58.6053 29.3675 55.5709 30.1691 52.5946 30.8245C43.904 32.7436 12.4599 40.7744 18.1311 23.1376Z" fill="#333333"/>
<path d="M8.87559 60.6848C10.5479 60.6848 11.9035 58.1429 11.9035 55.0072C11.9035 51.8715 10.5479 49.3295 8.87559 49.3295C7.20331 49.3295 5.84766 51.8715 5.84766 55.0072C5.84766 58.1429 7.20331 60.6848 8.87559 60.6848Z" fill="#B16668"/>
<path d="M73.9772 60.6848C75.6495 60.6848 77.0051 58.1429 77.0051 55.0072C77.0051 51.8715 75.6495 49.3295 73.9772 49.3295C72.3049 49.3295 70.9492 51.8715 70.9492 55.0072C70.9492 58.1429 72.3049 60.6848 73.9772 60.6848Z" fill="#B16668"/>
</svg>
