<svg width="1440" height="900" viewBox="0 0 1440 900" fill="none" xmlns="http://www.w3.org/2000/svg">
<g clip-path="url(#clip0)">
<rect width="1440" height="900" fill="white"/>
<circle cx="29.0001" cy="853" r="82" transform="rotate(26.0152 29.0001 853)" fill="url(#paint0_linear)" fill-opacity="0.43"/>
<circle cx="1427.5" cy="16.5" r="36.5" fill="url(#paint1_linear)" fill-opacity="0.43"/>
<circle cx="1429.64" cy="889.644" r="36.5" transform="rotate(123.849 1429.64 889.644)" fill="url(#paint2_linear)" fill-opacity="0.43"/>
<path fill-rule="evenodd" clip-rule="evenodd" d="M120.345 945.474C176.296 898.605 187.083 810.758 144.439 749.263C101.794 687.769 21.8673 675.913 -34.0836 722.782C-38.3723 726.375 -42.3957 730.208 -46.1499 734.252C8.57391 699.238 79.7361 713.698 119.112 770.48C158.487 827.261 152.308 906.509 107.084 955.221C111.627 952.314 116.056 949.067 120.345 945.474Z" fill="#89D3F3"/>
<path fill-rule="evenodd" clip-rule="evenodd" d="M1534.71 730.272C1469.94 704.808 1394.83 730.991 1360.69 793.691C1326.55 856.391 1345.31 933.686 1401.84 974.276C1396.46 972.162 1391.16 969.692 1385.95 966.858C1318.05 929.882 1292.98 844.858 1329.95 776.953C1366.93 709.048 1451.95 683.975 1519.86 720.952C1525.06 723.786 1530.01 726.902 1534.71 730.272Z" fill="#89D3F3"/>
</g>
<defs>
<linearGradient id="paint0_linear" x1="29.0001" y1="771" x2="29.0001" y2="935" gradientUnits="userSpaceOnUse">
<stop stop-color="#89D3F3" stop-opacity="0"/>
<stop offset="1" stop-color="#89D3F3"/>
</linearGradient>
<linearGradient id="paint1_linear" x1="1427.5" y1="-20" x2="1427.5" y2="53" gradientUnits="userSpaceOnUse">
<stop stop-color="#89D3F3" stop-opacity="0"/>
<stop offset="1" stop-color="#89D3F3"/>
</linearGradient>
<linearGradient id="paint2_linear" x1="1429.64" y1="853.144" x2="1429.64" y2="926.144" gradientUnits="userSpaceOnUse">
<stop stop-color="#89D3F3" stop-opacity="0"/>
<stop offset="1" stop-color="#89D3F3"/>
</linearGradient>
<clipPath id="clip0">
<rect width="1440" height="900" fill="white"/>
</clipPath>
</defs>
</svg>
