<svg width="628" height="649" viewBox="0 0 628 649" fill="none" xmlns="http://www.w3.org/2000/svg">
<path d="M312.807 630.893C476.242 630.893 608.733 551.841 608.733 454.326C608.733 356.811 476.242 277.759 312.807 277.759C149.371 277.759 16.8806 356.811 16.8806 454.326C16.8806 551.841 149.371 630.893 312.807 630.893Z" fill="#89D3F3" fill-opacity="0.28"/>
<path d="M482.756 515.592C463.351 504.013 463.351 485.244 482.756 473.666C502.161 462.088 533.624 462.088 553.029 473.666C572.434 485.244 572.434 504.013 553.029 515.592C533.624 527.17 502.161 527.17 482.756 515.592Z" fill="#E0E0E0"/>
<path d="M88.0706 517.201L37.0268 486.75C34.1506 485.037 34.1506 482.246 37.0268 480.533L333.933 303.382C335.546 302.537 337.33 302.096 339.139 302.096C340.948 302.096 342.731 302.537 344.345 303.382L395.401 333.833C398.277 335.546 398.277 338.337 395.401 340.05L98.4954 517.201C96.8796 518.046 95.094 518.487 93.283 518.487C91.472 518.487 89.6865 518.046 88.0706 517.201Z" fill="#E0E0E0"/>
<path d="M271.547 462.919L315.432 436.699C319.953 433.999 322.214 430.469 322.214 426.925C322.214 423.382 322.214 420.617 322.214 420.617L276.697 394.086C275.425 393.236 274.367 392.087 273.607 390.734C272.847 389.38 272.408 387.86 272.326 386.298V330.367L195.71 376.134V432.039C195.798 433.6 196.24 435.118 196.999 436.471C197.758 437.823 198.814 438.973 200.081 439.827L238.816 462.88C247.834 468.318 262.504 468.318 271.547 462.919Z" fill="#00B2FF"/>
<g opacity="0.6">
<path opacity="0.6" d="M271.547 462.919L315.432 436.699C319.953 433.999 322.214 430.469 322.214 426.925C322.214 423.382 322.214 420.617 322.214 420.617L276.697 394.086C275.425 393.236 274.367 392.087 273.607 390.734C272.847 389.38 272.408 387.86 272.326 386.298V330.367L195.71 376.134V432.039C195.798 433.6 196.24 435.118 196.999 436.471C197.758 437.823 198.814 438.973 200.081 439.827L238.816 462.88C247.834 468.318 262.504 468.318 271.547 462.919Z" fill="black"/>
</g>
<path opacity="0.3" d="M214.085 441.943V448.225L200.043 439.853C198.776 439 197.721 437.85 196.964 436.497C196.207 435.144 195.769 433.626 195.685 432.065V376.134L210.28 367.425C210.581 371.254 210.908 375.213 211.222 379.107L200.96 385.207V428.885C201.041 430.448 201.48 431.968 202.24 433.322C202.999 434.676 204.059 435.824 205.331 436.673L214.085 441.943Z" fill="black"/>
<path d="M200.96 428.898C201.046 430.46 201.487 431.978 202.246 433.331C203.005 434.684 204.062 435.833 205.331 436.686L238.766 456.597C247.809 461.984 262.479 461.997 271.535 456.597L315.495 430.378C324.55 424.978 324.55 416.23 315.495 410.83L282.035 390.919C280.769 390.064 279.715 388.913 278.958 387.561C278.201 386.208 277.762 384.691 277.676 383.131V339.44L201.06 385.207L200.96 428.898Z" fill="#00B2FF"/>
<path opacity="0.3" d="M200.96 428.898C201.046 430.46 201.487 431.978 202.246 433.331C203.005 434.684 204.062 435.833 205.331 436.686L238.766 456.597C247.809 461.984 262.479 461.997 271.535 456.597L315.495 430.378C324.55 424.978 324.55 416.23 315.495 410.83L282.035 390.919C280.769 390.064 279.715 388.913 278.958 387.561C278.201 386.208 277.762 384.691 277.676 383.131V339.44L201.06 385.207L200.96 428.898Z" fill="black"/>
<path opacity="0.5" d="M290.89 396.253L281.985 390.945C280.719 390.09 279.665 388.939 278.908 387.587C278.151 386.234 277.712 384.717 277.626 383.157V339.44L201.01 385.207V428.898C201.097 430.46 201.537 431.978 202.296 433.331C203.056 434.684 204.112 435.833 205.381 436.686L214.173 441.878L290.89 396.253Z" fill="black"/>
<path d="M322.227 420.63V426.938C322.227 430.482 319.953 433.999 315.444 436.712L271.484 462.919C266.674 465.572 261.3 466.951 255.847 466.929V460.647C261.3 460.668 266.674 459.29 271.484 456.636L315.444 430.404C319.953 427.717 322.227 424.173 322.227 420.63Z" fill="#00B2FF"/>
<path opacity="0.5" d="M322.227 420.63V426.938C322.227 430.482 319.953 433.999 315.444 436.712L271.484 462.919C266.674 465.572 261.3 466.951 255.847 466.929V460.647C261.3 460.668 266.674 459.29 271.484 456.636L315.444 430.404C319.953 427.717 322.227 424.173 322.227 420.63Z" fill="black"/>
<path d="M77.8719 483.193C79.5282 484.02 81.3493 484.433 83.1884 484.399C85.0275 484.366 86.8332 483.886 88.46 482.999L384.876 306.146C386.465 305.075 387.788 303.632 388.737 301.934C389.687 300.236 390.235 298.33 390.34 296.372V48.5581C390.283 46.6532 389.791 44.789 388.905 43.1175C388.019 41.4461 386.763 40.0147 385.24 38.94C383.586 38.1123 381.766 37.6997 379.928 37.7358C378.091 37.7719 376.287 38.2556 374.665 39.1476L78.2487 216.052C76.6649 217.13 75.35 218.58 74.4114 220.283C73.4729 221.986 72.9371 223.894 72.8479 225.852V473.627C72.9039 475.517 73.3876 477.366 74.26 479.027C75.1325 480.689 76.3695 482.115 77.8719 483.193Z" fill="#00B2FF"/>
<path d="M88.4978 482.986L384.914 306.133C386.505 305.064 387.83 303.622 388.779 301.923C389.729 300.224 390.276 298.318 390.377 296.359V48.5581C390.377 44.9626 387.928 43.4959 384.914 45.3001L88.4978 222.153C86.9077 223.223 85.5843 224.666 84.635 226.364C83.6857 228.063 83.1372 229.968 83.0342 231.927V479.728C83.0342 483.323 85.4834 484.79 88.4978 482.986Z" fill="#00B2FF"/>
<path opacity="0.5" d="M88.4978 482.986L384.914 306.133C386.505 305.064 387.83 303.622 388.779 301.923C389.729 300.224 390.276 298.318 390.377 296.359V48.5581C390.377 44.9626 387.928 43.4959 384.914 45.3001L88.4978 222.153C86.9077 223.223 85.5843 224.666 84.635 226.364C83.6857 228.063 83.1372 229.968 83.0342 231.927V479.728C83.0342 483.323 85.4834 484.79 88.4978 482.986Z" fill="black"/>
<path d="M87.6938 489.424C86.1395 490.125 84.4565 490.47 82.7608 490.434C81.0652 490.398 79.3972 489.982 77.8719 489.216C76.3662 488.135 75.1271 486.704 74.2545 485.038C73.3818 483.372 72.9 481.518 72.8479 479.624V457.065L83.0843 463.191V485.75C83.0215 489.034 85.0437 490.527 87.6938 489.424Z" fill="#00B2FF"/>
<path opacity="0.5" d="M87.6938 489.424C86.1395 490.125 84.4565 490.47 82.7608 490.434C81.0652 490.398 79.3972 489.982 77.8719 489.216C76.3662 488.135 75.1271 486.704 74.2545 485.038C73.3818 483.372 72.9 481.518 72.8479 479.624V457.065L83.0843 463.191V485.75C83.0215 489.034 85.0437 490.527 87.6938 489.424Z" fill="black"/>
<path d="M83.0215 463.191V485.751C83.0215 489.346 85.5335 490.8 88.4851 489.008L384.901 312.156C386.484 311.09 387.803 309.655 388.752 307.966C389.7 306.278 390.253 304.383 390.365 302.434V279.771L83.0215 463.191Z" fill="#00B2FF"/>
<path opacity="0.3" d="M83.0342 463.139V485.751C83.0342 489.346 85.5462 490.8 88.4978 489.008L384.914 312.156C386.494 311.088 387.811 309.653 388.757 307.964C389.704 306.276 390.254 304.382 390.365 302.434V279.771L83.0342 463.139Z" fill="black"/>
<path d="M93.2705 434.83V235.444C93.329 234.27 93.6553 233.126 94.2228 232.106C94.7903 231.087 95.5829 230.22 96.5361 229.577L376.8 62.304C378.609 61.2267 380.078 62.0963 380.078 64.251V263.741C380.017 264.916 379.689 266.06 379.119 267.08C378.549 268.099 377.755 268.965 376.8 269.608L96.5487 436.842C94.74 437.919 93.2705 437.037 93.2705 434.83Z" fill="#00B2FF"/>
<path d="M93.2705 434.83V235.444C93.329 234.27 93.6553 233.126 94.2228 232.106C94.7903 231.087 95.5829 230.22 96.5361 229.577L376.8 62.304C378.609 61.2267 380.078 62.0963 380.078 64.251V263.741C380.017 264.916 379.689 266.06 379.119 267.08C378.549 268.099 377.755 268.965 376.8 269.608L96.5487 436.842C94.74 437.919 93.2705 437.037 93.2705 434.83Z" fill="#263238"/>
<path d="M236.693 378.665C235.201 379.668 233.959 381.021 233.069 382.613C232.179 384.206 231.664 385.993 231.569 387.829C231.569 391.204 233.867 392.58 236.693 390.893C238.187 389.889 239.429 388.534 240.32 386.939C241.211 385.344 241.724 383.555 241.818 381.716C241.818 378.341 239.519 376.978 236.693 378.665Z" fill="#00B2FF"/>
<path opacity="0.7" d="M84.6417 226.345C83.6683 228.036 83.1119 229.948 83.0215 231.914V463.191L72.8479 457.065V225.852C72.9138 223.88 73.4673 221.959 74.4556 220.271L84.6417 226.345Z" fill="black"/>
<path opacity="0.3" d="M390.314 47.6234C389.925 44.7159 387.652 43.7294 384.901 45.3L88.485 222.152C86.8779 223.191 85.5514 224.634 84.6291 226.345L74.3801 220.231C75.3085 218.52 76.6389 217.079 78.2486 216.039L374.665 39.1994C376.289 38.3073 378.095 37.8235 379.935 37.7875C381.774 37.7514 383.596 38.164 385.253 38.9917C386.645 39.9722 387.818 41.2502 388.691 42.7393C389.564 44.2285 390.118 45.8941 390.314 47.6234Z" fill="black"/>
<path d="M406.303 78.1265C405.863 77.8981 405.371 77.798 404.88 77.8369C404.388 77.8758 403.917 78.0522 403.515 78.3471L123.829 245.322C122.725 246.076 121.809 247.089 121.155 248.277C120.5 249.465 120.125 250.796 120.061 252.162V450.328C120.022 450.997 120.15 451.665 120.434 452.268C120.718 452.87 121.148 453.387 121.681 453.768C122.297 454.118 125.587 456.091 126.567 456.636C126.914 456.819 127.301 456.903 127.689 456.88C128.078 456.857 128.453 456.728 128.778 456.506L408.401 289.532C409.505 288.777 410.421 287.765 411.075 286.576C411.73 285.388 412.105 284.057 412.169 282.691V83.5002C412.225 82.9968 412.144 82.4873 411.936 82.0287C411.727 81.5702 411.399 81.1807 410.988 80.9042C410.36 80.4759 407.007 78.5548 406.303 78.1265Z" fill="#00B2FF"/>
<path d="M128.715 248.126L408.414 81.2158C410.524 79.9178 412.182 80.9822 412.182 83.5003V282.691C412.117 284.057 411.743 285.388 411.088 286.577C410.433 287.765 409.517 288.777 408.414 289.532L128.715 456.506C126.605 457.804 124.947 455.715 124.947 453.197V254.966C125.013 253.601 125.389 252.27 126.043 251.082C126.698 249.894 127.613 248.882 128.715 248.126Z" fill="#FAFAFA"/>
<path d="M410.122 81.9687C410.863 81.9687 410.976 82.9292 410.976 83.5003V282.691C410.908 283.835 410.584 284.947 410.028 285.938C409.472 286.929 408.7 287.773 407.773 288.403L128.112 455.377C127.924 455.503 127.708 455.575 127.484 455.585C126.781 455.585 126.228 454.469 126.228 453.197V254.966C126.289 253.823 126.604 252.709 127.148 251.712C127.693 250.715 128.452 249.861 129.368 249.216L409.042 82.3321C409.365 82.1163 409.737 81.9911 410.122 81.9687ZM410.122 80.6707C409.516 80.6973 408.928 80.8851 408.414 81.2158L128.715 248.126C127.613 248.882 126.698 249.894 126.043 251.082C125.389 252.271 125.013 253.601 124.947 254.966V453.197C124.947 455.196 126.027 456.883 127.459 456.883C127.903 456.874 128.336 456.744 128.715 456.507L408.401 289.532C409.505 288.777 410.421 287.765 411.075 286.577C411.73 285.388 412.105 284.057 412.169 282.691V83.5003C412.169 81.7091 411.315 80.6707 410.059 80.6707H410.122Z" fill="#E0E0E0"/>
<path d="M121.606 453.768C122.021 453.988 124.997 455.741 126.303 456.52C125.834 456.117 125.463 455.608 125.219 455.031C124.974 454.454 124.864 453.826 124.897 453.197V267.907L119.998 264.948V450.328C119.958 450.996 120.084 451.663 120.366 452.266C120.648 452.868 121.075 453.385 121.606 453.768Z" fill="#F0F0F0"/>
<path d="M412.232 83.4614C412.232 80.9692 410.511 79.9568 408.464 81.2158L128.715 248.126C127.613 248.882 126.698 249.894 126.043 251.082C125.389 252.27 125.013 253.601 124.947 254.966V267.946L412.232 96.4414V83.4614Z" fill="#00B2FF"/>
<g opacity="0.4">
<path opacity="0.4" d="M408.414 81.2158L128.715 248.113C127.593 248.844 126.668 249.858 126.027 251.059L121.167 248.139C121.806 246.98 122.723 246.01 123.829 245.322L403.515 78.3472C403.916 78.0502 404.387 77.8715 404.878 77.8303C405.369 77.7892 405.862 77.8871 406.304 78.1136C406.982 78.5549 410.16 80.411 410.976 80.8653C410.554 80.7035 410.099 80.6508 409.653 80.7119C409.206 80.773 408.781 80.946 408.414 81.2158Z" fill="white"/>
</g>
<path opacity="0.15" d="M119.998 264.961V252.098C120.05 250.696 120.452 249.332 121.166 248.139L126.04 251.046C125.336 252.219 124.942 253.561 124.897 254.94V267.92L119.998 264.961Z" fill="black"/>
<path d="M353.25 232.887L185.737 332.833C184.923 333.379 184.245 334.117 183.758 334.985C183.271 335.853 182.99 336.828 182.937 337.83V387.466C182.99 388.468 183.271 389.443 183.758 390.311C184.245 391.18 184.923 391.917 185.737 392.463L190.623 395.371C191.492 395.825 192.451 396.061 193.424 396.061C194.397 396.061 195.357 395.825 196.225 395.371L363.713 295.425C364.527 294.876 365.206 294.136 365.692 293.265C366.179 292.395 366.46 291.418 366.513 290.414V240.766C366.46 239.764 366.179 238.789 365.692 237.921C365.205 237.052 364.527 236.315 363.713 235.769L358.814 232.861C357.95 232.415 356.996 232.184 356.029 232.189C355.063 232.193 354.111 232.433 353.25 232.887Z" fill="#00B2FF"/>
<path opacity="0.5" d="M366.513 240.325C366.312 238.832 365.144 238.287 363.738 239.13L196.225 339.076C195.399 339.607 194.72 340.349 194.253 341.231L183.765 334.975C184.235 334.107 184.909 333.375 185.725 332.846L353.25 232.9C354.116 232.445 355.073 232.208 356.045 232.208C357.016 232.208 357.973 232.445 358.839 232.9L363.738 235.808C364.484 236.313 365.118 236.978 365.597 237.757C366.076 238.536 366.388 239.411 366.513 240.325Z" fill="white"/>
<path d="M195.748 395.617C194.928 395.951 194.048 396.103 193.168 396.063C192.287 396.023 191.424 395.791 190.636 395.384L185.737 392.476C184.924 391.928 184.247 391.191 183.76 390.323C183.274 389.455 182.992 388.48 182.937 387.479V337.843C182.974 336.83 183.259 335.843 183.765 334.975L194.253 341.231C193.743 342.089 193.458 343.068 193.424 344.074V393.722C193.424 395.371 194.429 396.137 195.748 395.617Z" fill="#263238"/>
<path d="M196.225 339.076L363.738 239.13C365.283 238.209 366.539 238.949 366.539 240.792V290.44C366.485 291.444 366.204 292.421 365.717 293.291C365.231 294.162 364.553 294.902 363.738 295.451L196.25 395.397C194.705 396.318 193.449 395.565 193.449 393.722V344.087C193.5 343.085 193.777 342.11 194.259 341.24C194.741 340.369 195.415 339.628 196.225 339.076Z" fill="#00B2FF"/>
<path d="M308.838 259.392L185.75 332.846C184.934 333.375 184.261 334.107 183.791 334.975L194.278 341.231C194.745 340.349 195.424 339.607 196.25 339.076L319.338 265.636L308.838 259.392Z" fill="#455A64"/>
<path d="M319.313 265.636L196.225 339.076C195.41 339.626 194.732 340.365 194.245 341.236C193.759 342.106 193.477 343.083 193.424 344.087V393.709C193.424 395.552 194.68 396.305 196.225 395.384L319.313 321.943V265.636Z" fill="#37474F"/>
<path d="M224.611 333.028L288.127 295.139C290.752 293.569 292.887 294.685 292.887 297.631C292.769 299.286 292.276 300.889 291.447 302.31C290.617 303.731 289.476 304.929 288.114 305.809L224.611 343.71C221.986 345.281 219.838 344.165 219.838 341.218C219.956 339.562 220.45 337.958 221.279 336.535C222.108 335.112 223.249 333.911 224.611 333.028Z" fill="#00B2FF"/>
<path d="M237.623 345.579C237.635 345.566 237.649 345.555 237.665 345.547C237.682 345.539 237.699 345.536 237.717 345.536C237.735 345.536 237.752 345.539 237.769 345.547C237.785 345.555 237.799 345.566 237.811 345.579C237.867 345.668 237.894 345.773 237.887 345.878V353.264C237.887 353.977 237.829 354.689 237.711 355.392C237.607 356.035 237.43 356.662 237.183 357.261C236.958 357.81 236.662 358.326 236.304 358.793C235.951 359.227 235.525 359.591 235.048 359.87C234.674 360.122 234.238 360.257 233.792 360.26C233.622 360.246 233.456 360.196 233.304 360.113C233.153 360.031 233.02 359.917 232.913 359.78C232.637 359.398 232.456 358.952 232.385 358.482C232.265 357.853 232.21 357.214 232.222 356.573V349.175C232.222 349.045 232.247 348.917 232.297 348.798C232.328 348.691 232.395 348.599 232.486 348.539L233.277 348.059C233.303 348.034 233.336 348.02 233.371 348.02C233.406 348.02 233.44 348.034 233.465 348.059C233.523 348.146 233.55 348.252 233.541 348.357V355.652C233.531 356.053 233.569 356.454 233.654 356.846C233.688 357.097 233.793 357.331 233.955 357.521C234.012 357.591 234.083 357.646 234.164 357.682C234.245 357.718 234.332 357.734 234.42 357.729C234.635 357.714 234.842 357.643 235.023 357.521C235.246 357.383 235.449 357.213 235.626 357.015C235.822 356.781 235.983 356.519 236.103 356.236C236.245 355.903 236.35 355.555 236.417 355.198C236.49 354.769 236.524 354.335 236.517 353.9V346.592C236.521 346.461 236.551 346.333 236.605 346.215C236.636 346.108 236.703 346.016 236.794 345.956L237.623 345.579Z" fill="#FAFAFA"/>
<path d="M242.546 352.563C242.553 352.467 242.531 352.372 242.484 352.29C242.454 352.256 242.417 352.23 242.375 352.215C242.333 352.199 242.289 352.194 242.245 352.199C242.091 352.178 241.934 352.178 241.78 352.199L241.052 352.342C240.817 352.402 240.571 352.402 240.336 352.342C240.151 352.281 239.992 352.157 239.884 351.992C239.761 351.781 239.68 351.547 239.645 351.304C239.523 350.608 239.523 349.896 239.645 349.201C239.739 348.802 239.874 348.415 240.047 348.046C240.219 347.677 240.43 347.329 240.675 347.007C240.913 346.701 241.202 346.441 241.529 346.241C241.793 346.075 242.089 345.969 242.396 345.93C242.618 345.906 242.843 345.956 243.036 346.073C243.22 346.189 243.365 346.361 243.451 346.566C243.552 346.808 243.607 347.068 243.614 347.332C243.627 347.462 243.601 347.594 243.539 347.708C243.508 347.815 243.441 347.907 243.35 347.968L242.597 348.422C242.562 348.443 242.523 348.453 242.484 348.453C242.444 348.453 242.405 348.443 242.371 348.422L242.207 348.292C242.142 348.239 242.064 348.208 241.981 348.201C241.82 348.22 241.665 348.278 241.529 348.37C241.332 348.493 241.157 348.651 241.014 348.837C240.862 349.042 240.782 349.294 240.788 349.551C240.77 349.65 240.77 349.751 240.788 349.85C240.812 349.886 240.844 349.917 240.881 349.94C240.918 349.962 240.959 349.976 241.002 349.98C241.139 350.003 241.279 350.003 241.416 349.98L242.119 349.85C242.71 349.733 243.112 349.85 243.375 350.187C243.653 350.668 243.78 351.226 243.74 351.784C243.736 352.17 243.686 352.553 243.589 352.926C243.49 353.331 243.346 353.723 243.162 354.094C242.977 354.479 242.745 354.836 242.471 355.159C242.211 355.474 241.901 355.742 241.554 355.95C241.278 356.133 240.964 356.244 240.637 356.275C240.401 356.284 240.168 356.215 239.972 356.08C239.778 355.943 239.629 355.749 239.545 355.522C239.443 355.276 239.392 355.011 239.394 354.743C239.382 354.609 239.408 354.473 239.469 354.354C239.5 354.247 239.567 354.155 239.658 354.094L240.411 353.64C240.512 353.64 240.587 353.575 240.637 353.64L240.801 353.822C240.834 353.86 240.874 353.892 240.92 353.914C240.965 353.936 241.014 353.949 241.064 353.952C241.241 353.952 241.413 353.893 241.554 353.783C241.781 353.65 241.985 353.479 242.157 353.277C242.243 353.17 242.314 353.052 242.371 352.926C242.459 352.823 242.52 352.698 242.546 352.563Z" fill="#FAFAFA"/>
<path d="M245.109 349.045C245.106 348.371 245.161 347.698 245.272 347.033C245.377 346.408 245.541 345.795 245.762 345.203C245.946 344.673 246.2 344.17 246.515 343.71C246.779 343.315 247.121 342.983 247.52 342.737C247.811 342.535 248.166 342.456 248.512 342.516C248.819 342.59 249.088 342.78 249.266 343.048C249.502 343.4 249.669 343.798 249.756 344.217C249.876 344.761 249.935 345.319 249.932 345.878V346.683C249.936 346.818 249.905 346.952 249.844 347.072C249.813 347.179 249.746 347.271 249.655 347.332L246.39 349.292C246.382 349.52 246.412 349.748 246.478 349.967C246.526 350.114 246.613 350.244 246.729 350.343C246.832 350.428 246.962 350.469 247.093 350.46C247.245 350.441 247.391 350.388 247.52 350.304C247.71 350.198 247.88 350.057 248.022 349.889C248.151 349.739 248.261 349.574 248.349 349.396C248.403 349.293 248.461 349.193 248.525 349.097C248.579 349.031 248.642 348.974 248.713 348.928L249.492 348.461C249.519 348.439 249.552 348.427 249.586 348.427C249.62 348.427 249.654 348.439 249.68 348.461C249.713 348.502 249.737 348.55 249.75 348.602C249.763 348.653 249.765 348.707 249.756 348.76C249.742 349.013 249.691 349.262 249.605 349.499C249.497 349.859 249.354 350.207 249.178 350.538C248.981 350.918 248.746 351.275 248.475 351.602C248.204 351.937 247.882 352.222 247.52 352.446C247.223 352.647 246.868 352.734 246.515 352.692C246.206 352.616 245.937 352.421 245.762 352.147C245.514 351.754 245.348 351.312 245.272 350.849C245.158 350.255 245.103 349.651 245.109 349.045ZM247.52 344.904C247.327 345.012 247.16 345.163 247.03 345.346C246.891 345.528 246.777 345.728 246.691 345.943C246.603 346.157 246.532 346.379 246.478 346.605C246.433 346.81 246.404 347.018 246.39 347.228L248.6 345.93C248.587 345.751 248.562 345.573 248.525 345.398C248.506 345.241 248.445 345.093 248.349 344.969C248.311 344.913 248.263 344.866 248.207 344.83C248.151 344.794 248.088 344.771 248.022 344.762C247.844 344.746 247.666 344.797 247.52 344.904Z" fill="#FAFAFA"/>
<path d="M253.875 341.283C253.495 341.508 253.195 341.854 253.021 342.27C252.826 342.817 252.736 343.399 252.758 343.983V348.669C252.759 348.803 252.734 348.935 252.682 349.058C252.651 349.165 252.585 349.257 252.494 349.318L251.753 349.759C251.741 349.773 251.726 349.784 251.71 349.791C251.694 349.799 251.676 349.803 251.659 349.803C251.641 349.803 251.623 349.799 251.607 349.791C251.591 349.784 251.576 349.773 251.564 349.759C251.508 349.671 251.482 349.566 251.489 349.46V341.062C251.49 340.929 251.515 340.797 251.564 340.673C251.599 340.568 251.665 340.478 251.753 340.413L252.494 339.972C252.519 339.947 252.553 339.934 252.588 339.934C252.623 339.934 252.657 339.947 252.682 339.972C252.74 340.054 252.767 340.156 252.758 340.258V340.673C252.907 340.325 253.092 339.994 253.31 339.687C253.509 339.402 253.766 339.167 254.064 338.999L254.516 338.726C254.539 338.702 254.571 338.689 254.604 338.689C254.637 338.689 254.668 338.702 254.692 338.726C254.752 338.813 254.783 338.918 254.78 339.025V340.206C254.778 340.341 254.748 340.473 254.692 340.595C254.66 340.698 254.599 340.789 254.516 340.855L253.875 341.283Z" fill="#FAFAFA"/>
<path d="M263.245 340.66C263.257 340.646 263.271 340.635 263.288 340.628C263.304 340.62 263.321 340.616 263.339 340.616C263.357 340.616 263.375 340.62 263.391 340.628C263.407 340.635 263.422 340.646 263.433 340.66C263.49 340.748 263.516 340.853 263.509 340.959V342.257C263.508 342.39 263.483 342.522 263.433 342.646C263.39 342.742 263.326 342.827 263.245 342.893L258.95 345.489C258.924 345.513 258.89 345.527 258.855 345.527C258.82 345.527 258.787 345.513 258.761 345.489C258.705 345.405 258.678 345.304 258.686 345.203V333.521C258.686 333.387 258.712 333.255 258.761 333.132C258.796 333.03 258.862 332.944 258.95 332.885L259.741 332.405C259.766 332.38 259.8 332.366 259.835 332.366C259.87 332.366 259.904 332.38 259.929 332.405C259.985 332.488 260.012 332.589 260.005 332.69V342.568L263.245 340.66Z" fill="#FAFAFA"/>
<path d="M267.101 331.055C267.384 330.853 267.725 330.756 268.068 330.782C268.362 330.806 268.637 330.946 268.834 331.172C269.069 331.45 269.24 331.778 269.337 332.132C269.471 332.592 269.547 333.067 269.563 333.547C269.563 333.651 269.563 333.794 269.563 333.962V334.962C269.563 335.118 269.563 335.26 269.563 335.377C269.538 335.941 269.462 336.502 269.337 337.052C269.221 337.587 269.052 338.109 268.834 338.609C268.635 339.075 268.378 339.511 268.068 339.907C267.803 340.266 267.475 340.57 267.101 340.803C266.811 340.998 266.468 341.093 266.122 341.075C265.831 341.049 265.562 340.91 265.368 340.686C265.127 340.418 264.954 340.092 264.865 339.738C264.731 339.279 264.655 338.803 264.639 338.324C264.639 338.22 264.639 338.09 264.639 337.921V336.922C264.639 336.753 264.639 336.61 264.639 336.506C264.654 335.938 264.726 335.372 264.853 334.819C264.975 334.28 265.148 333.754 265.368 333.248C265.567 332.786 265.82 332.35 266.122 331.95C266.388 331.588 266.721 331.284 267.101 331.055ZM268.282 334.404C268.281 334.116 268.235 333.831 268.144 333.56C268.097 333.395 268 333.249 267.867 333.145C267.76 333.07 267.631 333.038 267.503 333.054C267.36 333.082 267.223 333.139 267.101 333.223C266.954 333.306 266.818 333.411 266.699 333.534C266.555 333.689 266.433 333.864 266.335 334.053C266.209 334.289 266.116 334.543 266.059 334.806C265.976 335.138 265.926 335.477 265.908 335.819C265.908 335.922 265.908 336.039 265.908 336.182V337.104C265.908 337.246 265.908 337.363 265.908 337.441C265.92 337.728 265.97 338.012 266.059 338.285C266.105 338.451 266.202 338.596 266.335 338.7C266.387 338.738 266.447 338.765 266.509 338.778C266.572 338.792 266.637 338.792 266.699 338.778C266.842 338.753 266.978 338.7 267.101 338.622C267.247 338.535 267.382 338.431 267.503 338.311C267.643 338.153 267.765 337.978 267.867 337.791C267.988 337.553 268.081 337.3 268.144 337.039C268.226 336.707 268.272 336.368 268.282 336.026C268.289 335.905 268.289 335.784 268.282 335.663V334.754C268.289 334.637 268.289 334.52 268.282 334.404Z" fill="#FAFAFA"/>
<path d="M273.406 338.648C273.567 338.547 273.711 338.42 273.833 338.272C273.985 338.089 274.115 337.888 274.223 337.675C274.347 337.414 274.444 337.14 274.512 336.857C274.589 336.539 274.627 336.212 274.625 335.883V335.221C274.625 335.351 274.499 335.507 274.411 335.689C274.325 335.879 274.224 336.061 274.11 336.234C273.978 336.416 273.836 336.59 273.683 336.753C273.525 336.924 273.343 337.068 273.142 337.181C273.013 337.272 272.868 337.335 272.715 337.367C272.561 337.398 272.404 337.397 272.251 337.363C271.972 337.273 271.732 337.085 271.572 336.831C271.368 336.496 271.219 336.127 271.133 335.741C271.026 335.25 270.967 334.75 270.957 334.248C270.957 334.079 270.957 333.872 270.957 333.625C270.957 333.378 270.957 333.171 270.957 332.989C270.973 332.418 271.032 331.85 271.133 331.289C271.236 330.736 271.383 330.193 271.572 329.666C271.75 329.208 271.978 328.773 272.251 328.368C272.482 328.01 272.787 327.709 273.142 327.485C273.31 327.382 273.492 327.307 273.683 327.265C273.824 327.238 273.968 327.238 274.11 327.265C274.221 327.297 274.324 327.355 274.411 327.433C274.491 327.497 274.563 327.571 274.625 327.654V327.239C274.625 327.105 274.651 326.973 274.7 326.849C274.735 326.748 274.801 326.662 274.888 326.603L275.629 326.148C275.655 326.124 275.689 326.11 275.724 326.11C275.759 326.11 275.792 326.124 275.818 326.148C275.878 326.235 275.909 326.34 275.906 326.447V334.884C275.94 336.148 275.713 337.404 275.24 338.57C274.869 339.487 274.227 340.26 273.406 340.777C273.126 340.957 272.806 341.059 272.477 341.075C272.216 341.092 271.957 341.024 271.736 340.881C271.523 340.716 271.351 340.503 271.233 340.258C271.111 339.962 271.043 339.645 271.032 339.323C271.021 339.189 271.047 339.053 271.108 338.934C271.139 338.827 271.205 338.735 271.296 338.674L271.962 338.285C271.977 338.268 271.996 338.254 272.016 338.245C272.037 338.236 272.059 338.231 272.081 338.231C272.104 338.231 272.126 338.236 272.146 338.245C272.167 338.254 272.185 338.268 272.2 338.285C272.262 338.352 272.317 338.426 272.364 338.505C272.44 338.645 272.567 338.747 272.715 338.791C272.866 338.908 273.092 338.778 273.406 338.648ZM272.226 332.353C272.226 332.699 272.226 333.036 272.226 333.365C272.19 333.884 272.332 334.399 272.628 334.819C272.739 334.919 272.882 334.973 273.029 334.973C273.177 334.973 273.32 334.919 273.431 334.819C273.796 334.574 274.08 334.221 274.248 333.807C274.476 333.265 274.604 332.684 274.625 332.093C274.625 331.899 274.625 331.665 274.625 331.392C274.625 331.12 274.625 330.886 274.625 330.717C274.65 330.252 274.517 329.793 274.248 329.419C274.136 329.314 273.991 329.255 273.84 329.255C273.688 329.255 273.543 329.314 273.431 329.419C273.074 329.663 272.794 330.011 272.628 330.419C272.37 331.029 272.233 331.687 272.226 332.353Z" fill="#FAFAFA"/>
<path d="M278.832 320.827C278.857 320.805 278.888 320.794 278.92 320.794C278.952 320.794 278.983 320.805 279.008 320.827C279.074 320.911 279.105 321.018 279.096 321.125V322.54C279.097 322.675 279.067 322.809 279.008 322.929C278.973 323.027 278.912 323.112 278.832 323.176L277.991 323.682C277.979 323.696 277.964 323.707 277.948 323.715C277.932 323.722 277.914 323.726 277.896 323.726C277.879 323.726 277.861 323.722 277.845 323.715C277.828 323.707 277.814 323.696 277.802 323.682C277.769 323.643 277.745 323.598 277.73 323.549C277.714 323.5 277.709 323.448 277.714 323.397V321.982C277.713 321.847 277.744 321.713 277.802 321.592C277.837 321.491 277.903 321.405 277.991 321.346L278.832 320.827ZM279.046 333.015C279.046 333.144 279.02 333.272 278.97 333.391C278.93 333.493 278.865 333.583 278.782 333.651L278.028 334.092C278.018 334.106 278.004 334.117 277.989 334.124C277.974 334.132 277.957 334.135 277.94 334.135C277.923 334.135 277.907 334.132 277.892 334.124C277.876 334.117 277.863 334.106 277.852 334.092C277.787 334.008 277.755 333.901 277.765 333.794V325.396C277.764 325.26 277.794 325.127 277.852 325.006C277.888 324.905 277.949 324.816 278.028 324.747L278.782 324.305C278.807 324.281 278.841 324.267 278.876 324.267C278.911 324.267 278.945 324.281 278.97 324.305C279.026 324.389 279.053 324.489 279.046 324.591V333.015Z" fill="#FAFAFA"/>
<path d="M285.652 329.056C285.652 329.189 285.626 329.322 285.577 329.445C285.542 329.547 285.476 329.633 285.389 329.692L284.635 330.146C284.611 330.17 284.58 330.183 284.547 330.183C284.514 330.183 284.483 330.17 284.459 330.146C284.393 330.062 284.362 329.955 284.371 329.848V325.279C284.41 324.739 284.315 324.199 284.095 323.708C283.919 323.384 283.643 323.332 283.253 323.565C282.865 323.835 282.577 324.233 282.437 324.695C282.227 325.307 282.125 325.953 282.135 326.603V331.185C282.135 331.318 282.109 331.45 282.06 331.574C282.029 331.681 281.963 331.773 281.872 331.834L281.131 332.275C281.119 332.289 281.104 332.3 281.088 332.307C281.072 332.315 281.054 332.319 281.036 332.319C281.019 332.319 281.001 332.315 280.985 332.307C280.969 332.3 280.954 332.289 280.942 332.275C280.884 332.193 280.857 332.091 280.867 331.989V323.591C280.865 323.457 280.891 323.325 280.942 323.202C280.973 323.095 281.04 323.003 281.131 322.942L281.872 322.501C281.884 322.487 281.898 322.476 281.914 322.469C281.93 322.461 281.948 322.457 281.966 322.457C281.984 322.457 282.001 322.461 282.018 322.469C282.034 322.476 282.048 322.487 282.06 322.501C282.116 322.589 282.143 322.694 282.135 322.8V323.202C282.301 322.806 282.503 322.428 282.738 322.073C282.945 321.745 283.225 321.473 283.555 321.281C283.841 321.065 284.196 320.972 284.547 321.021C284.686 321.057 284.816 321.124 284.929 321.215C285.041 321.307 285.134 321.422 285.2 321.553C285.382 321.905 285.502 322.287 285.552 322.683C285.619 323.199 285.652 323.719 285.652 324.24V329.056Z" fill="#FAFAFA"/>
<path d="M349.005 291.271L336.809 298.54L338.706 280.861C337.236 280.056 336.307 278.096 336.307 275.28C336.307 270.256 339.271 264.428 342.913 262.3C346.556 260.171 349.507 262.43 349.507 267.492C349.432 270.47 348.609 273.377 347.121 275.929L349.005 291.271Z" fill="#455A64"/>
<path d="M349.017 291.271L338.279 284.872L336.809 298.553L349.017 291.271Z" fill="#37474F"/>
<path d="M342.888 262.261C340.232 264.115 338.252 266.833 337.261 269.984L347.096 275.851C348.584 273.299 349.407 270.392 349.482 267.414C349.507 262.391 346.556 260.093 342.888 262.261Z" fill="#37474F"/>
<path d="M283.605 203.397C279.422 200.904 273.657 201.255 267.277 205.058C254.541 212.664 244.217 231.135 244.217 246.334C244.217 253.967 246.829 259.314 251.024 261.781L259.151 266.661C263.321 269.153 269.086 268.79 275.479 264.987C288.214 257.393 298.539 238.91 298.539 223.71C298.539 216.117 295.951 210.73 291.781 208.303" fill="#00B2FF"/>
<path d="M275.466 209.951C262.73 217.558 252.406 236.041 252.406 251.228C252.406 266.414 262.73 272.593 275.466 264.987C288.202 257.38 298.539 238.91 298.526 223.71C298.514 208.511 288.189 202.358 275.466 209.951Z" fill="#00B2FF"/>
<path d="M288.189 243.673V245.413C285.138 251.041 280.762 255.782 275.466 259.198C270.505 262.144 266.021 262.468 262.73 260.586V257.004C262.899 253.277 263.928 249.645 265.733 246.414C267.538 243.182 270.066 240.444 273.105 238.43L276.458 236.431C279.422 234.665 282.311 234.432 284.572 235.795C286.833 237.157 288.189 240.026 288.189 243.673Z" fill="#00B2FF"/>
<path opacity="0.4" d="M283.605 203.397L291.769 208.303C287.599 205.798 281.834 206.148 275.441 209.951C267.101 214.936 259.791 224.58 255.747 234.912L247.57 230.018C251.627 219.634 258.874 210.042 267.264 205.058C273.67 201.268 279.435 200.904 283.605 203.397Z" fill="white"/>
<path opacity="0.2" d="M258.862 266.466L251.037 261.781C246.842 259.314 244.229 253.993 244.229 246.334L252.406 251.241C252.456 258.639 254.868 263.909 258.862 266.466Z" fill="black"/>
<path opacity="0.1" d="M247.595 230.018L255.772 234.912C253.677 240.085 252.552 245.621 252.456 251.228L244.28 246.321C244.38 240.72 245.505 235.188 247.595 230.018Z" fill="black"/>
<path d="M272.552 235.613C271.773 235.622 271.006 235.416 270.329 235.016C269.514 234.454 268.86 233.675 268.438 232.761C268.016 231.847 267.84 230.832 267.93 229.824C268.037 227.459 268.69 225.155 269.835 223.104C270.98 221.054 272.584 219.317 274.512 218.038C275.286 217.399 276.229 217.016 277.217 216.94C278.206 216.864 279.193 217.098 280.051 217.611C280.908 218.125 281.596 218.893 282.024 219.817C282.452 220.741 282.6 221.776 282.45 222.789C282.341 225.153 281.687 227.456 280.542 229.507C279.397 231.557 277.795 233.294 275.868 234.575C274.871 235.218 273.727 235.576 272.552 235.613Z" fill="white"/>
<path d="M284.572 235.782C282.311 234.419 279.422 234.652 276.458 236.418L273.105 238.417C270.064 240.433 267.536 243.173 265.731 246.407C263.926 249.641 262.897 253.274 262.73 257.004V260.599C266.021 262.481 270.505 262.157 275.466 259.211C280.762 255.795 285.138 251.054 288.189 245.426V243.686C288.189 240.026 286.883 237.158 284.572 235.782Z" fill="white"/>
<path d="M542.78 460.336C542.78 460.336 544.451 445.175 551.748 433.402C559.045 421.629 569.068 414.296 578.426 413.53C587.783 412.764 595.344 421.668 585.334 427.808C575.323 433.947 557.538 440.152 549.349 462.997L542.78 460.336Z" fill="#00B2FF"/>
<path opacity="0.1" d="M542.78 460.336C542.78 460.336 544.451 445.175 551.748 433.402C559.045 421.629 569.068 414.296 578.426 413.53C587.783 412.764 595.344 421.668 585.334 427.808C575.323 433.947 557.538 440.152 549.349 462.997L542.78 460.336Z" fill="black"/>
<path d="M545.531 456.39H545.43C545.307 456.338 545.209 456.238 545.157 456.111C545.106 455.985 545.104 455.842 545.154 455.715C555.026 430.599 573.816 420.098 582.382 418.073C582.446 418.058 582.513 418.055 582.578 418.067C582.643 418.078 582.705 418.102 582.761 418.139C582.817 418.175 582.866 418.222 582.904 418.277C582.943 418.333 582.97 418.396 582.985 418.462C583 418.529 583.002 418.598 582.991 418.665C582.98 418.732 582.956 418.797 582.921 418.854C582.886 418.912 582.841 418.962 582.787 419.002C582.733 419.042 582.672 419.07 582.608 419.085C574.218 421.084 555.792 431.39 546.084 456.117C546.035 456.221 545.954 456.304 545.854 456.354C545.753 456.403 545.639 456.416 545.531 456.39Z" fill="white"/>
<path d="M595.495 456.688C594.653 458.661 592.568 459.7 590.634 460.505C588.7 461.309 586.59 462.179 585.535 464.048C583.424 467.812 586.891 473.134 584.63 476.781C584.098 477.516 583.427 478.131 582.659 478.591C581.891 479.05 581.04 479.344 580.159 479.455C578.714 479.728 577.245 479.728 575.788 479.858C575.09 479.848 574.394 479.792 573.703 479.689C571.673 479.221 569.551 479.453 567.662 480.351C564.76 482.038 563.894 485.816 562.11 488.736C561.02 490.456 559.584 491.912 557.9 493.005C556.216 494.098 554.323 494.803 552.351 495.07C551.095 495.239 548.583 495.486 547.327 494.72C547.229 494.67 547.136 494.609 547.051 494.538C546.862 494.33 546.636 494.058 546.536 493.915C546.529 493.885 546.529 493.854 546.536 493.824C546.021 491.864 546.862 489.839 546.9 487.814V487.451C546.812 485.102 546.749 482.765 546.699 480.429C546.59 476.102 546.548 471.776 546.573 467.449C546.573 464.645 546.272 461.582 547.427 458.947C548.683 456.039 551.849 455.975 553.042 453.132C553.519 451.99 553.77 450.783 554.235 449.627C554.953 447.948 556.104 446.504 557.561 445.454C559.018 444.403 560.726 443.786 562.499 443.669C568.013 443.384 572.949 447.992 578.463 447.563C579.883 447.447 581.277 446.992 582.683 446.733C587.142 445.863 592.304 447.174 594.816 451.081C595.368 451.886 595.718 452.819 595.836 453.797C595.955 454.775 595.837 455.768 595.495 456.688Z" fill="#00B2FF"/>
<path d="M545.983 484.829C545.864 484.793 545.764 484.71 545.703 484.599C545.642 484.487 545.625 484.356 545.656 484.232C553.268 454.715 583.337 450.484 590.408 450.977C590.47 450.98 590.531 450.997 590.587 451.025C590.643 451.053 590.693 451.092 590.734 451.141C590.775 451.189 590.806 451.245 590.826 451.307C590.845 451.368 590.853 451.432 590.847 451.496C590.835 451.623 590.775 451.739 590.682 451.821C590.588 451.903 590.468 451.945 590.345 451.938C583.45 451.431 554.009 455.598 546.561 484.492C546.526 484.614 546.446 484.718 546.338 484.781C546.23 484.844 546.103 484.861 545.983 484.829Z" fill="white"/>
<path d="M579.43 469.876C579.335 469.862 579.247 469.817 579.179 469.746C576.399 467.256 573.122 465.432 569.581 464.402C566.04 463.372 562.322 463.162 558.694 463.788C558.572 463.8 558.449 463.764 558.352 463.687C558.254 463.61 558.188 463.498 558.166 463.373C558.148 463.246 558.179 463.116 558.251 463.012C558.324 462.908 558.433 462.837 558.556 462.815C562.34 462.164 566.217 462.386 569.908 463.466C573.6 464.545 577.014 466.455 579.908 469.058C579.952 469.103 579.987 469.157 580.012 469.216C580.036 469.275 580.048 469.338 580.048 469.402C580.048 469.466 580.036 469.53 580.012 469.589C579.987 469.648 579.952 469.702 579.908 469.746C579.851 469.816 579.774 469.866 579.689 469.89C579.604 469.913 579.513 469.908 579.43 469.876Z" fill="white"/>
<path d="M473.663 103.84L477.657 105.424V96.3376C477.657 89.1207 483.221 87.3944 489.262 91.0028C495.316 94.6112 500.215 103.373 500.215 110.59V111.888C501.057 111.622 501.946 111.556 502.816 111.695C503.686 111.835 504.514 112.176 505.239 112.692C507.533 114.238 509.441 116.322 510.81 118.773C512.178 121.225 512.967 123.975 513.114 126.802V127.399L518.69 130.722C520.199 131.739 521.455 133.11 522.356 134.722C523.257 136.334 523.778 138.143 523.878 140.002C523.878 143.429 521.554 144.818 518.69 143.105L473.663 116.223C472.153 115.208 470.897 113.837 469.998 112.224C469.098 110.611 468.581 108.801 468.488 106.942C468.488 103.529 470.787 102.14 473.663 103.84Z" fill="#E6E6E6"/>
<path d="M527.156 96.6491L534.403 100.971C534.363 100.644 534.342 100.315 534.34 99.9849V97.8173C534.34 93.9233 536.953 92.3916 540.193 94.3257C541.586 95.2067 542.777 96.3891 543.685 97.7913C544.212 92.9368 547.905 91.1326 552.376 93.7935C554.932 95.5117 557.059 97.8278 558.587 100.554C560.114 103.281 560.999 106.341 561.168 109.486V112.731C561.201 114.028 560.947 115.315 560.427 116.495L566.456 120.078C567.396 120.722 568.176 121.585 568.734 122.597C569.293 123.609 569.614 124.742 569.672 125.906C569.672 128.048 568.215 128.917 566.418 127.853L527.156 104.489C526.206 103.85 525.416 102.987 524.851 101.972C524.286 100.957 523.961 99.8178 523.903 98.648C523.903 96.4544 525.36 95.5847 527.156 96.6491Z" fill="#E6E6E6"/>
<path d="M499.097 293.647C493.821 302.862 488.747 310.871 485.18 314.713C478.41 317.958 462.509 322.968 456.292 323.799C455.2 323.943 454.094 323.676 453.177 323.046C450.728 321.385 448.831 321.112 446.257 320.191C444.235 319.477 443.38 318.477 443.004 318.893C442.614 319.364 442.419 319.974 442.459 320.592C442.499 321.211 442.771 321.789 443.217 322.203C444.183 323.151 445.254 323.979 446.407 324.669C443.65 325.376 440.773 325.429 437.992 324.825C432.604 323.358 430.067 326.032 433.709 332.08C434.965 334.235 440.14 337.701 450.54 336.766C454.25 336.559 457.945 336.126 461.605 335.468C471.578 333.262 482.668 331.133 489.488 328.978C492.025 327.947 494.296 326.321 496.12 324.227C507.587 310.715 511.393 301.084 516.417 292.336L515.99 278.058C507.851 277.772 503.505 285.936 499.097 293.647Z" fill="#FFA8A7"/>
<path d="M517.384 277.772C515.024 277.429 512.618 277.76 510.427 278.727C508.235 279.695 506.341 281.263 504.95 283.263C499.373 290.648 489.501 308.379 489.501 308.379C489.501 308.379 492.729 317.27 501.445 318.763L515.45 299.215C515.45 299.215 522.081 285.638 517.384 277.772Z" fill="#455A64"/>
<path d="M547.666 477.067H538.535V493.889H547.666V477.067Z" fill="#FFA8A7"/>
<path d="M516.015 476.171L506.896 476.509L506.432 458.7L516.015 458.363V476.171Z" fill="#FFA8A7"/>
<path d="M548.947 331.444C548.947 340.816 547.616 416.321 547.616 416.321C547.817 419.02 550.128 424.005 549.663 434.376C548.972 448.459 548.055 485.478 548.055 485.478C546.488 486.307 544.759 486.756 542.998 486.792C541.238 486.828 539.492 486.45 537.894 485.686C537.894 485.686 530.484 433.766 528.851 419.864C527.419 407.676 523.752 367.334 523.752 367.334L518.816 415.023C519.862 420.139 520.242 425.378 519.946 430.599C519.519 437.089 516.58 470.681 516.58 470.681C515.003 471.642 513.234 472.221 511.408 472.371C509.582 472.522 507.747 472.241 506.042 471.55C506.042 471.55 500.842 420.928 500.742 414.984C500.616 408.234 503.781 331.366 503.781 331.366L548.947 331.444Z" fill="#37474F"/>
<path d="M538.535 489.035V487.633C537.656 488.035 535.634 496.368 532.004 499.925C529.128 502.754 525.209 506.012 524.204 509.166C523.199 512.321 529.668 514.255 532.368 513.748C535.483 513.151 540.909 510.776 542.265 508.556C543.622 506.337 544.262 503.118 545.368 501.508C546.473 499.899 549.023 498.108 549.613 496.238C549.797 494.49 549.622 492.72 549.098 491.046C548.671 489.307 548.219 487.399 547.666 487.568V488.632C546.379 489.724 544.76 490.312 543.094 490.294C541.763 490.41 538.523 490.125 538.535 489.035Z" fill="#263238"/>
<path d="M506.796 473.471C506.319 473.471 505.929 474.211 504.887 475.431C503.337 477.116 501.524 478.521 499.524 479.585C496.107 481.428 489.476 484.258 486.449 485.725C484.565 486.633 484.653 489.073 486.6 490.462C488.546 491.851 493.231 492.851 498.858 491.501C501.923 490.761 505.917 487.711 508.454 487.879C510.991 488.048 515.701 487.996 517.572 486.581C519.444 485.166 518.69 482.233 518.163 479.702C517.585 476.924 516.907 472.602 516.015 472.797V473.77C514.922 475.561 509.258 476.288 506.846 474.977L506.796 473.471Z" fill="#263238"/>
<path d="M523.752 367.334C519.002 365.727 514.659 363.044 511.041 359.481C511.041 359.481 513.553 364.427 520.788 369.034L519.23 411.622L523.752 367.334Z" fill="#263238"/>
<path d="M543.848 279.148C543.848 279.148 551.384 280.939 550.844 295.009L549.274 317.4V351.018C542.567 358.884 512.85 358.313 502.613 350.395C502.613 350.395 503.769 310.611 504.46 295.295C504.949 284.418 507.374 278.94 517.723 277.746L530.446 278.317L543.848 279.148Z" fill="#00B2FF"/>
<path d="M534.252 249.917C534.295 251.801 533.978 253.675 533.317 255.431C532.656 257.187 531.665 258.791 530.402 260.149C529.139 261.508 527.628 262.595 525.956 263.347C524.284 264.099 522.485 264.502 520.662 264.532C513.126 264.532 508.705 257.809 507.072 249.917C504.058 235.47 513.151 235.289 520.662 235.289C524.341 235.367 527.839 236.952 530.388 239.695C532.936 242.438 534.326 246.115 534.252 249.917Z" fill="#263238"/>
<path d="M541.185 255.823C541.185 255.823 539.1 266.363 538.259 268.102C537.729 269.149 536.829 269.944 535.747 270.322L535.897 262.91L541.185 255.823Z" fill="#263238"/>
<path d="M538.56 240.727C538.56 240.727 540.055 240.338 541.65 242.908C543.006 245.101 543.32 250.034 541.185 255.888L537.254 256.381L538.56 240.727Z" fill="#263238"/>
<path d="M540.004 242.869L544.827 242.96C544.86 242.637 544.829 242.312 544.734 242.003C544.639 241.694 544.484 241.409 544.278 241.165C544.071 240.921 543.818 240.724 543.535 240.586C543.251 240.448 542.943 240.373 542.629 240.364C541.97 240.373 541.337 240.635 540.853 241.097C540.368 241.559 540.066 242.19 540.004 242.869Z" fill="#263238"/>
<path d="M540.595 241.688L544.162 238.144C543.957 237.894 543.703 237.69 543.417 237.546C543.132 237.402 542.82 237.321 542.503 237.307C542.185 237.294 541.869 237.349 541.573 237.468C541.277 237.587 541.008 237.769 540.783 238.001C540.31 238.479 540.028 239.124 539.993 239.807C539.959 240.489 540.173 241.161 540.595 241.688Z" fill="#263238"/>
<path d="M536.073 256.316C536.865 256.822 537.982 255.2 538.962 254.096C539.942 252.993 542.981 251.981 544.564 255.563C546.146 259.146 543.446 262.689 541.185 263.857C537.128 265.934 535.847 262.91 535.847 262.91L535.508 279.602C529.806 288.688 516.869 288.403 521.529 279.161V274.086C519.612 274.415 517.665 274.52 515.726 274.397C512.561 273.878 510.576 271.191 509.609 267.505C508.077 261.586 507.487 256.809 508.793 245.166C510.225 232.42 524.016 232.277 531.401 237.378C538.786 242.479 536.073 256.316 536.073 256.316Z" fill="#FFA8A7"/>
<path d="M518.891 243.18C522.182 242.843 525.435 242.142 528.738 241.882C529.451 241.793 530.172 241.828 530.874 241.986C533.386 242.7 533.084 245.737 533.486 247.853C534.177 251.514 534.742 257.705 536.073 257.731C536.475 257.731 537.982 255.044 538.962 254.084C539.501 253.256 539.805 252.29 539.841 251.293C540.093 249.787 540.218 248.243 540.331 246.711C540.432 245.413 540.557 244.115 540.557 242.817C540.615 241.35 540.501 239.881 540.218 238.443C539.903 237.219 539.299 236.095 538.46 235.172L538.209 234.886C536.553 233.097 534.544 231.698 532.318 230.784C529.115 229.545 525.757 228.788 522.345 228.539C518.939 228.29 515.547 227.856 512.184 227.241C511.991 227.183 511.787 227.183 511.594 227.241C511.458 227.319 511.342 227.431 511.259 227.567C511.176 227.703 511.127 227.859 511.117 228.02C510.979 228.826 511.065 229.657 511.365 230.415C511.665 231.173 512.167 231.828 512.812 232.303C510.539 232.485 507.926 231.265 505.741 230.642C505.564 230.564 505.374 230.524 505.182 230.524C504.99 230.524 504.8 230.564 504.623 230.642C504.404 230.8 504.248 231.035 504.184 231.304C504.024 231.914 504.003 232.553 504.121 233.173C504.321 235.051 504.997 236.842 506.08 238.365C507.773 240.642 510.164 242.258 512.862 242.947C514.849 243.342 516.882 243.421 518.891 243.18Z" fill="#263238"/>
<path d="M521.541 274.086C521.541 274.086 528.6 272.554 531.062 271.139C532.528 270.31 533.719 269.044 534.478 267.505C534.107 269.051 533.446 270.506 532.531 271.788C530.735 274.28 521.541 276.098 521.541 276.098V274.086Z" fill="#F28F8F"/>
<path d="M523.237 254.408C523.223 254.809 523.363 255.199 523.627 255.493C523.89 255.787 524.256 255.962 524.643 255.979C524.951 256.005 525.259 255.934 525.528 255.776C525.796 255.618 526.012 255.38 526.147 255.094C526.282 254.807 526.33 254.484 526.285 254.169C526.24 253.853 526.103 253.559 525.894 253.325C525.684 253.091 525.411 252.927 525.11 252.856C524.809 252.786 524.494 252.81 524.207 252.927C523.919 253.044 523.673 253.248 523.5 253.513C523.327 253.777 523.235 254.089 523.237 254.408Z" fill="#263238"/>
<path d="M525.498 248.113L528.525 249.917C528.745 249.472 528.795 248.958 528.665 248.477C528.534 247.996 528.233 247.583 527.821 247.321C527.621 247.205 527.399 247.133 527.17 247.11C526.941 247.087 526.709 247.113 526.491 247.188C526.272 247.262 526.071 247.383 525.9 247.542C525.729 247.702 525.592 247.896 525.498 248.113Z" fill="#263238"/>
<path d="M522.169 264.935L518.941 266.233C519.006 266.462 519.116 266.674 519.264 266.857C519.412 267.04 519.594 267.19 519.8 267.297C520.006 267.404 520.232 267.467 520.462 267.48C520.692 267.493 520.923 267.458 521.139 267.375C521.579 267.18 521.93 266.819 522.121 266.365C522.312 265.912 522.329 265.401 522.169 264.935Z" fill="#F28F8F"/>
<path d="M510.25 249.45L513.013 247.165C512.889 246.966 512.726 246.796 512.535 246.666C512.343 246.536 512.127 246.449 511.901 246.411C511.674 246.373 511.443 246.385 511.221 246.445C511 246.506 510.793 246.614 510.614 246.763C510.245 247.086 510.004 247.539 509.937 248.035C509.869 248.53 509.981 249.034 510.25 249.45Z" fill="#263238"/>
<path d="M511.468 253.98C511.49 254.264 511.592 254.535 511.76 254.76C511.929 254.986 512.158 255.155 512.418 255.249C512.679 255.342 512.96 255.355 513.227 255.286C513.495 255.217 513.737 255.069 513.924 254.86C514.112 254.651 514.236 254.39 514.282 254.109C514.328 253.828 514.294 253.539 514.184 253.278C514.074 253.017 513.893 252.794 513.663 252.637C513.433 252.481 513.163 252.397 512.887 252.396C512.693 252.403 512.502 252.449 512.326 252.533C512.149 252.616 511.99 252.735 511.858 252.882C511.726 253.029 511.624 253.202 511.557 253.39C511.49 253.579 511.46 253.779 511.468 253.98Z" fill="#263238"/>
<path d="M519.042 252.76L518.879 261.988L513.804 260.794L519.042 252.76Z" fill="#F28F8F"/>
<path d="M398.541 330.055L406.416 325.357L409.531 321.45L401.669 326.148L398.541 330.055Z" fill="#00B2FF"/>
<path opacity="0.4" d="M398.541 330.055L406.416 325.357L409.531 321.45L401.669 326.148L398.541 330.055Z" fill="black"/>
<path d="M419.956 342.828L427.831 338.129L434.4 332.119L426.538 336.805L419.956 342.828Z" fill="#00B2FF"/>
<path opacity="0.4" d="M419.956 342.828L427.831 338.129L434.4 332.119L426.538 336.805L419.956 342.828Z" fill="black"/>
<path d="M486.851 359.04C488.713 361.619 489.84 364.686 490.104 367.892C488.25 365.308 487.124 362.244 486.851 359.04ZM505.151 359.286C502.5 340.66 492.817 322.241 481.286 315.349C475.748 312.039 470.623 311.922 466.516 314.402L459.106 318.815L458.691 319.074C458.361 319.262 458.042 319.47 457.737 319.697C457.128 320.13 456.556 320.617 456.028 321.151L455.777 321.398C455.551 321.631 455.312 321.904 455.099 322.164C454.885 322.423 454.559 322.826 454.308 323.176C453.774 323.901 453.292 324.665 452.863 325.461C452.637 325.863 452.424 326.291 452.223 326.759L387.501 288.156L379.638 292.842V298.034L380.304 298.423L380.932 298.8V299.838L379.676 300.604V303.615L389.184 324.383L398.579 330.004L401.706 326.11L409.996 331.237L414.756 339.661L420.006 342.789L426.575 336.766L434.639 341.582L437.352 353.147L450.904 361.246C451.574 364.19 452.413 367.09 453.416 369.93C453.504 370.216 453.617 370.514 453.73 370.839C458.226 383.04 465.373 393.489 473.437 398.304C474.403 398.897 475.415 399.405 476.463 399.823C477.018 400.051 477.584 400.246 478.159 400.407C478.661 400.545 479.164 400.662 479.666 400.757C481.252 401.056 482.878 401.056 484.464 400.757L485.117 400.589C485.43 400.524 485.736 400.433 486.034 400.316L486.738 400.031C486.986 399.938 487.226 399.82 487.453 399.68C487.686 399.576 487.912 399.459 488.132 399.33L488.458 399.122C488.517 399.102 488.573 399.071 488.622 399.031C490.418 397.967 494.839 395.319 496.045 394.618C502.023 391.035 505.892 381.975 505.892 369.164C505.881 365.857 505.634 362.555 505.151 359.286Z" fill="#00B2FF"/>
<path d="M484.552 374.759C481.437 372.902 478.925 367.399 478.925 362.466C478.925 357.534 481.437 355.029 484.552 356.872C487.667 358.715 490.167 364.232 490.167 369.177C490.167 374.123 487.655 376.615 484.552 374.759ZM497.276 363.972C494.638 345.359 484.954 326.927 473.412 320.048C468.061 316.855 463.112 316.621 459.093 318.815L458.679 319.074C458.349 319.262 458.03 319.47 457.724 319.697C457.115 320.13 456.544 320.617 456.016 321.151L455.765 321.398C455.539 321.631 455.3 321.904 455.086 322.164C454.873 322.423 454.546 322.826 454.295 323.176C453.762 323.901 453.279 324.665 452.851 325.461C452.625 325.863 452.411 326.291 452.21 326.759C451.039 329.267 450.195 331.925 449.698 334.663L379.626 292.842V298.034L380.292 298.423L380.92 298.8V299.838L379.664 300.604V303.615L389.172 324.383L398.566 330.004L401.694 326.11L409.984 331.237L414.744 339.661L419.994 342.789L426.563 336.766L434.626 341.582L437.339 353.147L450.904 361.246C451.574 364.19 452.413 367.09 453.416 369.93C453.504 370.216 453.617 370.514 453.73 370.839C458.226 383.04 465.373 393.489 473.437 398.304C474.403 398.897 475.416 399.405 476.464 399.823C477.018 400.051 477.584 400.246 478.159 400.407C478.662 400.545 479.164 400.662 479.666 400.757C481.253 401.056 482.878 401.056 484.464 400.757L485.117 400.589C485.43 400.524 485.736 400.433 486.034 400.316L486.738 400.031C486.987 399.938 487.226 399.82 487.454 399.68C487.686 399.576 487.912 399.459 488.132 399.33L488.458 399.122C488.518 399.102 488.573 399.071 488.622 399.031C494.349 395.293 498.029 386.363 498.029 373.863C498.008 370.552 497.756 367.246 497.276 363.972Z" fill="#00B2FF"/>
<path opacity="0.4" d="M490.166 369.164C490.166 374.11 487.654 376.615 484.552 374.759C481.45 372.902 478.925 367.412 478.925 362.467C478.925 357.521 481.437 355.016 484.552 356.872C485.449 357.436 486.23 358.177 486.851 359.053C487.121 362.258 488.247 365.323 490.104 367.905C490.15 368.323 490.171 368.744 490.166 369.164Z" fill="black"/>
<path opacity="0.4" d="M505.866 369.151C505.866 381.962 501.998 391.023 496.019 394.605C494.763 395.306 490.393 397.954 488.596 399.018C494.324 395.28 498.004 386.35 498.004 373.85C497.991 370.544 497.747 367.242 497.275 363.972C494.638 345.359 484.954 326.927 473.411 320.048C468.061 316.855 463.112 316.621 459.093 318.815L466.503 314.402C470.611 311.922 475.735 312.039 481.274 315.349C492.817 322.241 502.5 340.66 505.138 359.286C505.616 362.552 505.86 365.849 505.866 369.151Z" fill="white"/>
<path d="M498.004 373.824C498.004 386.324 494.324 395.254 488.596 398.992C490.393 397.928 494.814 395.28 496.019 394.579C501.998 390.997 505.866 381.937 505.866 369.125C505.866 368.658 505.866 368.178 505.866 367.697L498.004 372.396C497.991 372.902 498.004 373.37 498.004 373.824Z" fill="#00B2FF"/>
<path opacity="0.1" d="M498.004 373.824C498.004 386.324 494.324 395.254 488.596 398.992C490.393 397.928 494.814 395.28 496.019 394.579C501.998 390.997 505.866 381.937 505.866 369.125C505.866 368.658 505.866 368.178 505.866 367.697L498.004 372.396C497.991 372.902 498.004 373.37 498.004 373.824Z" fill="black"/>
<path opacity="0.15" d="M450 339.972V342.607L379.638 300.63L380.932 299.851V298.761L450 339.972Z" fill="black"/>
<path opacity="0.15" d="M450 341.063V342.607L379.638 300.63L380.932 299.851V299.838L450 341.063Z" fill="black"/>
<path opacity="0.15" d="M480.596 394.592C477.929 394.52 475.328 393.719 473.06 392.269C461.592 385.428 452.26 365.075 452.26 346.904C452.26 336.299 455.363 328.381 460.776 325.149C464.544 322.891 469.003 323.176 473.688 325.967C485.142 332.807 494.474 353.225 494.474 371.397C494.474 381.988 491.372 389.919 485.959 393.138C484.326 394.102 482.476 394.603 480.596 394.592ZM466.214 324.954C464.541 324.945 462.894 325.392 461.442 326.252C456.506 329.199 453.554 336.922 453.554 346.891C453.554 364.647 462.597 384.532 473.725 391.126C477.983 393.722 482.015 393.956 485.368 391.957C490.305 389.011 493.256 381.3 493.256 371.332C493.256 353.562 484.213 333.69 473.097 327.083C471.02 325.777 468.646 325.06 466.214 325.006V324.954Z" fill="black"/>
<path opacity="0.4" d="M452.16 326.733C450.989 329.241 450.144 331.899 449.648 334.637L379.576 292.816L387.438 288.13L452.16 326.733Z" fill="white"/>
<path d="M543.232 330.795C546.9 323.617 551.095 307.496 553.18 299.358C556.144 287.806 551.346 280.537 545.895 280.238C542.491 280.783 531.275 322.929 531.275 322.929C530.019 323.955 512.975 332.898 507.499 335.144C506.52 335.527 505.439 335.527 504.46 335.144C501.835 334.157 500.039 334.339 497.464 334.079C495.442 333.872 494.424 333.132 494.16 333.573C493.921 334.121 493.89 334.742 494.074 335.312C494.258 335.882 494.643 336.36 495.153 336.649C496.261 337.317 497.442 337.848 498.67 338.233C496.468 338.923 494.174 339.243 491.875 339.18C486.599 339.064 484.703 341.426 488.797 346.968C491.309 350.421 495.467 351.511 504.749 348.202C507.411 347.241 511.029 345.385 514.407 344.126C521.365 341.53 523.199 341.218 528.5 339.362C536.224 336.662 541.6 333.988 543.232 330.795Z" fill="#FFA8A7"/>
<path d="M543.848 279.148C547.051 279.602 550.128 280.342 552.024 283.042C553.921 285.742 555.441 289.532 553.582 299.851C552.158 307.108 550.253 314.255 547.88 321.242C547.88 321.242 540.419 324.539 532.494 316.18L537.945 294.399C537.945 294.399 538.824 280.238 543.848 279.148Z" fill="#455A64"/>
</svg>
