<svg width="260" height="106" viewBox="0 0 260 106" fill="none" xmlns="http://www.w3.org/2000/svg">
<path d="M151.703 89.5887C144.156 97.2562 134.435 102.334 123.902 104.112C113.369 105.889 102.553 104.277 92.9683 99.5004C83.3836 94.724 75.511 87.023 70.4536 77.4765C65.3963 67.9301 63.4076 57.0165 64.7663 46.2651C66.125 35.5137 70.7629 25.4632 78.0302 17.5219C85.2975 9.58065 94.83 4.14658 105.292 1.98114C115.754 -0.1843 126.621 1.0274 136.371 5.44646C146.12 9.86551 154.264 17.2705 159.66 26.6237L130.172 44.1578C128.38 41.052 125.676 38.5931 122.439 37.1257C119.201 35.6584 115.593 35.256 112.119 35.975C108.645 36.6941 105.48 38.4985 103.066 41.1355C100.653 43.7724 99.1132 47.1097 98.6621 50.6798C98.2109 54.2499 98.8713 57.8738 100.551 61.0437C102.23 64.2137 104.844 66.7709 108.027 68.3569C111.209 69.9429 114.801 70.4784 118.299 69.8882C121.796 69.2979 125.024 67.6117 127.53 65.0657L151.703 89.5887Z" fill="url(#paint0_linear)"/>
<path d="M88.3451 88.9693C80.7979 96.6368 71.0769 101.715 60.5442 103.492C50.0116 105.27 39.1951 103.657 29.6104 98.881C20.0256 94.1046 12.1531 86.4036 7.09571 76.8571C2.03836 67.3107 0.0496946 56.3971 1.40837 45.6457C2.76704 34.8943 7.40497 24.8438 14.6723 16.9025C21.9396 8.96127 31.4721 3.5272 41.934 1.36176C52.396 -0.803684 63.2631 0.408017 73.0127 4.82707C82.7623 9.24613 90.9058 16.6511 96.3021 26.0044L66.8142 43.5384C65.0223 40.4326 62.3182 37.9737 59.0808 36.5063C55.8434 35.039 52.2349 34.6366 48.761 35.3557C45.287 36.0747 42.1217 37.8791 39.7085 40.5161C37.2954 43.153 35.7553 46.4903 35.3042 50.0604C34.853 53.6305 35.5134 57.2544 37.1927 60.4244C38.872 63.5943 41.4862 66.1515 44.6688 67.7375C47.8515 69.3235 51.4432 69.859 54.9406 69.2688C58.438 68.6786 61.6659 66.9923 64.172 64.4463L88.3451 88.9693Z" fill="#13EBC4" fill-opacity="0.15"/>
<path d="M213.997 89.4351C206.892 96.7496 197.81 101.761 187.9 103.836C177.989 105.91 167.696 104.954 158.32 101.09C148.945 97.2248 140.908 90.6243 135.228 82.1229C129.547 73.6214 126.478 63.6008 126.407 53.3282C126.336 43.0557 129.268 32.9925 134.831 24.4113C140.394 15.83 148.338 9.11619 157.659 5.11872C166.981 1.12124 177.261 0.0196923 187.199 1.95336C197.137 3.88703 206.287 8.76907 213.492 15.9821L189.816 40.3558C187.36 37.8965 184.24 36.2319 180.852 35.5727C177.463 34.9134 173.958 35.2889 170.78 36.6519C167.602 38.0148 164.893 40.3039 162.997 43.2297C161.1 46.1555 160.101 49.5866 160.125 53.089C160.149 56.5915 161.195 60.008 163.132 62.9066C165.069 65.8052 167.809 68.0556 171.006 69.3734C174.202 70.6911 177.712 71.0169 181.091 70.3096C184.47 69.6023 187.566 67.8936 189.989 65.3997L213.997 89.4351Z" fill="url(#paint1_linear)"/>
<ellipse rx="38.087" ry="37.5165" transform="matrix(0.000318729 -1 1 0.000328495 222.162 52.6756)" fill="url(#paint2_linear)" fill-opacity="0.43"/>
<defs>
<linearGradient id="paint0_linear" x1="0.853445" y1="33.4304" x2="218.277" y2="37.1888" gradientUnits="userSpaceOnUse">
<stop offset="0.382684" stop-color="#13EBC4" stop-opacity="0.24"/>
<stop offset="0.546875" stop-color="white" stop-opacity="0.86"/>
</linearGradient>
<linearGradient id="paint1_linear" x1="177.211" y1="1.02618" x2="177.948" y2="104.904" gradientUnits="userSpaceOnUse">
<stop stop-color="#0CFCED"/>
<stop offset="1" stop-color="#89D3F3" stop-opacity="0.25"/>
</linearGradient>
<linearGradient id="paint2_linear" x1="38.087" y1="0" x2="38.087" y2="75.033" gradientUnits="userSpaceOnUse">
<stop stop-color="#89D3F3" stop-opacity="0"/>
<stop offset="1" stop-color="#89D3F3"/>
</linearGradient>
</defs>
</svg>
