<svg width="200" height="238" viewBox="0 0 200 238" fill="none" xmlns="http://www.w3.org/2000/svg">
<path d="M0 8.24829V237.433H199.999V8.24829H0ZM138.598 23.6877C144.938 23.6877 150.081 28.8314 150.081 35.1711C150.081 41.5107 144.938 46.6544 138.598 46.6544C132.254 46.6544 127.115 41.5107 127.115 35.1711C127.115 28.8314 132.253 23.6877 138.598 23.6877ZM61.4016 23.6877C67.7459 23.6877 72.885 28.8314 72.885 35.1711C72.885 41.5107 67.7464 46.6544 61.4016 46.6544C55.062 46.6544 49.9183 41.5107 49.9183 35.1711C49.9183 28.8314 55.062 23.6877 61.4016 23.6877Z" fill="#E7EBEE"/>
<path d="M0 8.24829V66.7501H199.999V8.24829H0ZM61.4016 46.6539C55.062 46.6539 49.9183 41.5102 49.9183 35.1706C49.9183 28.8309 55.062 23.6872 61.4016 23.6872C67.7459 23.6872 72.885 28.8309 72.885 35.1706C72.885 41.5102 67.7464 46.6539 61.4016 46.6539ZM138.598 46.6539C132.254 46.6539 127.115 41.5102 127.115 35.1706C127.115 28.8309 132.253 23.6872 138.598 23.6872C144.938 23.6872 150.081 28.8309 150.081 35.1706C150.081 41.5102 144.938 46.6539 138.598 46.6539Z" fill="#0BA8EC"/>
<path d="M61.3904 50.2329C53.0798 50.2329 46.3187 43.4717 46.3187 35.1612C46.3187 26.8507 53.0798 20.0895 61.3904 20.0895C69.7009 20.0895 76.4621 26.8507 76.4621 35.1612C76.4621 43.4717 69.7009 50.2329 61.3904 50.2329ZM61.3904 27.2662C57.0373 27.2662 53.4958 30.8077 53.4958 35.1608C53.4958 39.5138 57.0373 43.0553 61.3904 43.0553C65.7434 43.0553 69.2849 39.5138 69.2849 35.1608C69.2849 30.8077 65.7439 27.2662 61.3904 27.2662Z" fill="#E7EBEE"/>
<path d="M138.598 50.2332C130.287 50.2332 123.526 43.4721 123.526 35.1615C123.526 26.851 130.287 20.0898 138.598 20.0898C146.908 20.0898 153.67 26.851 153.67 35.1615C153.67 43.4721 146.909 50.2332 138.598 50.2332ZM138.598 27.2665C134.245 27.2665 130.703 30.808 130.703 35.1611C130.703 39.5141 134.245 43.0556 138.598 43.0556C142.951 43.0556 146.492 39.5141 146.492 35.1611C146.492 30.808 142.951 27.2665 138.598 27.2665Z" fill="#E7EBEE"/>
<path d="M40.4032 139.547C48.7387 139.547 55.4957 132.79 55.4957 124.455H76.441V220.864H55.4962V153.1H39.7874L40.4032 139.547Z" fill="#12526D"/>
<path d="M93.6933 124.761V144.782H134.967C115.254 161.723 100.161 202.382 100.161 220.862H122.955C122.955 189.753 143.9 161.107 160.225 144.782V124.761H93.6933Z" fill="#12526D"/>
<path d="M200 197.958C178.262 186.544 166.795 193.807 166.795 193.807C166.795 213.522 155.685 237.429 129.44 237.429C129.44 237.43 181.323 235.313 200 197.958Z" fill="white"/>
<path d="M66.3971 111.003C58.6482 111.003 52.3447 104.699 52.3447 96.9503C52.3447 94.9684 53.9515 93.362 55.933 93.362C57.9145 93.362 59.5214 94.9688 59.5214 96.9503C59.5214 100.741 62.6056 103.826 66.3971 103.826C70.1886 103.826 73.2728 100.742 73.2728 96.9503V83.6496C73.2728 81.6676 74.8797 80.0613 76.8612 80.0613C78.8432 80.0613 80.4495 81.6681 80.4495 83.6496V96.9503C80.4495 104.699 74.146 111.003 66.3971 111.003Z" fill="#0BA8EC"/>
<path d="M100.006 111.003C92.2569 111.003 85.9534 104.699 85.9534 96.9504V83.6497C85.9534 81.6677 87.5602 80.0613 89.5417 80.0613C91.5237 80.0613 93.1301 81.6681 93.1301 83.6497V96.9504C93.1301 100.741 96.2143 103.826 100.006 103.826C103.797 103.826 106.882 100.742 106.882 96.9504V83.6497C106.882 81.6677 108.488 80.0613 110.47 80.0613C112.452 80.0613 114.058 81.6681 114.058 83.6497V96.9504C114.058 104.699 107.755 111.003 100.006 111.003Z" fill="#0BA8EC"/>
<path d="M144.058 111.003H123.13C121.148 111.003 119.541 109.396 119.541 107.414V83.6497C119.541 81.6677 121.148 80.0613 123.13 80.0613C125.111 80.0613 126.718 81.6681 126.718 83.6497V103.826H144.058C146.04 103.826 147.646 105.433 147.646 107.414C147.646 109.396 146.04 111.003 144.058 111.003Z" fill="#0BA8EC"/>
<path d="M61.3935 38.7558C59.4115 38.7558 57.8052 37.1489 57.8052 35.1674V3.58834C57.8052 1.60636 59.412 0 61.3935 0C63.3755 0 64.9819 1.60682 64.9819 3.58834V35.167C64.9823 37.1489 63.3755 38.7558 61.3935 38.7558Z" fill="#12526D"/>
<path d="M138.594 38.7558C136.612 38.7558 135.006 37.1489 135.006 35.1674V3.58834C135.006 1.60636 136.613 0 138.594 0C140.576 0 142.183 1.60682 142.183 3.58834V35.167C142.183 37.1489 140.576 38.7558 138.594 38.7558Z" fill="#12526D"/>
</svg>
