<svg width="9" height="31" viewBox="0 0 9 31" fill="none" xmlns="http://www.w3.org/2000/svg">
<path d="M4.34288 11.1978C6.67443 11.1978 8.56076 13.1489 8.56076 15.5606C8.56076 17.9722 6.67443 19.9233 4.34288 19.9233C2.01133 19.9233 0.125 17.9722 0.125 15.5606C0.125 13.1489 2.01133 11.1978 4.34288 11.1978ZM0.125 4.89609C0.125 7.30771 2.01133 9.25883 4.34288 9.25883C6.67443 9.25883 8.56076 7.30771 8.56076 4.89609C8.56076 2.48447 6.67443 0.533356 4.34288 0.533356C2.01133 0.533356 0.125 2.48447 0.125 4.89609ZM0.125 26.225C0.125 28.6366 2.01133 30.5878 4.34288 30.5878C6.67443 30.5878 8.56076 28.6366 8.56076 26.225C8.56076 23.8134 6.67443 21.8623 4.34288 21.8623C2.01133 21.8623 0.125 23.8134 0.125 26.225Z" fill="#12526D"/>
</svg>
