<svg width="31" height="31" viewBox="0 0 31 31" fill="none" xmlns="http://www.w3.org/2000/svg">
<path d="M30.0318 15.3855C30.0466 23.665 23.5187 30.4352 15.5141 30.441C12.0569 30.4435 8.88134 29.197 6.38582 27.1138C5.73691 26.5721 5.68841 25.5661 6.27809 24.9562L6.93813 24.2735C7.44246 23.7518 8.2476 23.6948 8.80635 24.1533C10.6449 25.6624 12.9717 26.5631 15.5036 26.5631C21.4616 26.5631 26.2826 21.5756 26.2826 15.4139C26.2826 9.25121 21.4607 4.26467 15.5036 4.26467C12.644 4.26467 10.0468 5.41407 8.11831 7.29023L11.0916 10.3656C11.6821 10.9764 11.2639 12.0206 10.4288 12.0206H1.91265C1.39496 12.0206 0.975342 11.5866 0.975342 11.0511V2.24249C0.975342 1.37879 1.98494 0.946209 2.57544 1.55693L5.46773 4.54855C8.07596 1.97036 11.6109 0.386688 15.5036 0.386688C23.5181 0.386688 30.017 7.09924 30.0318 15.3855ZM19.4337 20.1593L20.0091 19.394C20.4859 18.76 20.3755 17.8463 19.7625 17.3532L17.3782 15.435V9.11215C17.3782 8.30899 16.7487 7.65791 15.9722 7.65791H15.0349C14.2584 7.65791 13.629 8.30899 13.629 9.11215V17.3317L17.4607 20.4144C18.0737 20.9074 18.957 20.7932 19.4337 20.1593Z" fill="#12526D"/>
</svg>
