<svg width="35" height="37" viewBox="0 0 35 37" fill="none" xmlns="http://www.w3.org/2000/svg">
<path d="M17.5 0.696655C7.84 0.696655 0 8.62474 0 18.3933C0 28.1618 7.84 36.0899 17.5 36.0899C27.16 36.0899 35 28.1618 35 18.3933C35 8.62474 27.16 0.696655 17.5 0.696655ZM17.5 6.00564C20.405 6.00564 22.75 8.37699 22.75 11.3146C22.75 14.2523 20.405 16.6236 17.5 16.6236C14.595 16.6236 12.25 14.2523 12.25 11.3146C12.25 8.37699 14.595 6.00564 17.5 6.00564ZM17.5 31.1349C13.125 31.1349 9.2575 28.8697 7 25.4365C7.0525 21.9149 14 19.986 17.5 19.986C20.9825 19.986 27.9475 21.9149 28 25.4365C25.7425 28.8697 21.875 31.1349 17.5 31.1349Z" fill="#FAFAFA"/>
</svg>
